<?xml version="1.0" encoding="UTF-8"?>
<!DOCTYPE svg PUBLIC "-//W3C//DTD SVG 1.1//EN" "http://www.w3.org/Graphics/SVG/1.1/DTD/svg11.dtd">
<!-- Creator: CorelDRAW -->
<svg xmlns="http://www.w3.org/2000/svg" xml:space="preserve" width="6.82666in" height="6.82666in" style="shape-rendering:geometricPrecision; text-rendering:geometricPrecision; image-rendering:optimizeQuality; fill-rule:evenodd; clip-rule:evenodd"
viewBox="0 0 6.82666 6.82666"
 xmlns:xlink="http://www.w3.org/1999/xlink">
 <defs>
  <style type="text/css">
   <![CDATA[
    .fil0 {fill:#00838F}
    .fil1 {fill:#FFFFFE;fill-rule:nonzero}
   ]]>
  </style>
 </defs>
 <g id="Layer_x0020_1">
  <metadata id="CorelCorpID_0Corel-Layer"/>
  <rect class="fil0" width="6.82666" height="6.82666" rx="0.853335" ry="0.853335"/>
  <path class="fil1" d="M1.36811 2.35331l0.765217 0 0 0.73711c0,0.117783 0.0955512,0.213335 0.213335,0.213335 0.117783,0 0.213335,-0.0955512 0.213335,-0.213335l0 -0.73711 1.70667 0 0 0.73711c0,0.117783 0.0955512,0.213335 0.213335,0.213335 0.117783,0 0.213335,-0.0955512 0.213335,-0.213335l0 -0.73711 0.765224 0 0.116276 0 -0.0100236 0.115835 -0.101449 1.17218 0.507059 2.20159 0.0300354 0.130421 -0.133787 0 -4.90667 0 -0.133787 0 0.0300354 -0.130421 0.507059 -2.20159 -0.101449 -1.17218 -0.0100236 -0.115835 0.116276 0z"/>
  <path class="fil1" d="M2.45333 3.09042c0,0.0589094 -0.0477598,0.106669 -0.106669,0.106669 -0.0589094,0 -0.106669,-0.0477598 -0.106669,-0.106669l0 -1.06666c0,-0.322776 0.131972,-0.616138 0.344583,-0.828752 0.212614,-0.21261 0.505976,-0.344583 0.828752,-0.344583l3.93701e-006 0c0.322772,0 0.61613,0.131976 0.82874,0.344591 0.212618,0.212614 0.344594,0.505984 0.344594,0.828744l0 1.06666c0,0.0589094 -0.0477598,0.106669 -0.106669,0.106669 -0.0589094,0 -0.106669,-0.0477598 -0.106669,-0.106669l0 -1.06666c0,-0.263874 -0.108039,-0.503862 -0.282091,-0.677909 -0.174043,-0.174047 -0.41402,-0.282087 -0.677906,-0.282087l-3.93701e-006 0c-0.26389,0 -0.50387,0.108035 -0.677917,0.282079 -0.174043,0.174047 -0.282079,0.414028 -0.282079,0.677917l0 1.06666z"/>
 </g>
</svg>
